<svg xmlns="http://www.w3.org/2000/svg" viewBox="0 0 64 64" role="img" aria-label="W with a matte cat mark">
  <defs>
    <linearGradient id="bg" x1="6" y1="4" x2="58" y2="62" gradientUnits="userSpaceOnUse">
      <stop stop-color="#202429"/>
      <stop offset="0.55" stop-color="#303942"/>
      <stop offset="1" stop-color="#829190"/>
    </linearGradient>
    <linearGradient id="mark" x1="18" y1="15" x2="47" y2="52" gradientUnits="userSpaceOnUse">
      <stop stop-color="#d2dbd9"/>
      <stop offset="1" stop-color="#829190"/>
    </linearGradient>
  </defs>
  <rect x="1" y="1" width="62" height="62" rx="15" fill="url(#bg)" stroke="#4f5559" stroke-width="2"/>
  <path d="M18 26c0-5 2-9 6-12l3 6c3-1 7-1 10 0l3-6c4 3 6 7 6 12 0 8-6 13-14 13s-14-5-14-13Z" fill="#202429" stroke="url(#mark)" stroke-width="2.2" stroke-linejoin="round"/>
  <circle cx="27" cy="27" r="1.6" fill="#d2dbd9"/>
  <circle cx="37" cy="27" r="1.6" fill="#d2dbd9"/>
  <path d="M29 32c2 2 4 2 6 0" fill="none" stroke="#829190" stroke-width="1.7" stroke-linecap="round"/>
  <path d="m13 40 6 14 6-11 7 11 7-11 6 11 6-14" fill="none" stroke="url(#mark)" stroke-width="4" stroke-linecap="round" stroke-linejoin="round"/>
</svg>
